# xmcd CD database file
#
# Track frame offsets:
#	150
#	86527
#	100150
#	160917
#	248075
#	286002
#
# Disc length: 4303 seconds
#
# Revision: 3
# Processed by: cddbd v1.5.1PL0 Copyright (c) Steve Scherf et al.
# Submitted via: CDex 1.51
#
DISCID=4010cd06
DTITLE=Chick Corea And Herbie Hancock - An Evening With Chick Corea And Herbie Hancock
DYEAR=1978
DGENRE=Jazz
TTITLE0=Home Coming
TTITLE1=Ostinato (From Mikrokosmos For Two Pianos, Four Hands)
TTITLE2=The Hook
TTITLE3=Bouquet
TTITLE4=Maiden Voyage
TTITLE5=La Fiesta
EXTD=YEAR: 1978
EXTT0=
EXTT1=
EXTT2=
EXTT3=
EXTT4=
EXTT5=
PLAYORDER=
